#!OML:ASF H:\ManfredETheater\Project 1\Capture day 1\Session 1\subject.ASF
:FULLY-SPECIFIED
:DEGREES
63
root 3.74499 15.2517 -28.0706 -11.8062 -62.6938 16.6022
lowerback 34.2011 2.36399 -0.196997
upperback 7.57771 2.47078 1.12425
thorax -9.06192 0.916997 0.402737
lowerneck -5.16376 27.4257 6.34176
upperneck 2.41664 51.3372 -0.48893
head 32.8707 -51.9012 151.155
rclavicle 7.95139e-015 1.74931e-014
rhumerus -34.6623 0.338743 -78.0912
rradius 101.183
rwrist -4.42842
rhand -28.0298 -5.56204
rfingers 7.12502
rthumb -1.41468 -35.5371
lclavicle 7.95139e-015 1.74931e-014
lhumerus -34.8718 -7.08946 84.5248
lradius 75.2026
lwrist 0.344219
lhand -33.107 -11.8757
lfingers 7.12502
lthumb -6.31756 18.0101
rfemur -59.9048 -22.5068 16.7932
rtibia 99.5523
rfoot -19.6312 0.809706
rtoes -34.451
lfemur -46.6521 16.771 -14.8651
ltibia 69.147
lfoot -19.6649 -6.37594
ltoes -16.4085
64
root 3.81561 15.2457 -27.9013 -12.0887 -63.22 17.5462
lowerback 34.6508 2.37593 -0.118474
upperback 7.86094 2.45273 0.957669
thorax -8.90478 0.894839 0.189296
lowerneck -5.52823 27.512 5.87998
upperneck 2.42711 51.4208 -0.578234
head 32.7873 -51.7263 151.054
rclavicle 2.70347e-014 -1.59028e-014
rhumerus -34.4548 -0.296237 -77.6836
rradius 100.799
rwrist -4.45426
rhand -28.0535 -5.62061
rfingers 7.12502
rthumb -1.43759 -35.5955
lclavicle 2.70347e-014 -1.59028e-014
lhumerus -34.4554 -6.09028 84.226
lradius 76.7206
lwrist 0.30917
lhand -33.3617 -10.9862
lfingers 7.12502
lthumb -6.5634 18.892
rfemur -61.8869 -23.1414 19.3526
rtibia 99.9016
rfoot -19.4073 0.746413
rtoes -34.6341
lfemur -47.6426 17.6063 -16.1447
ltibia 69.9622
lfoot -19.8572 -6.49742
ltoes -15.2509
65
root 3.88458 15.2391 -27.7335 -12.469 -63.7589 18.544
lowerback 35.2142 2.38738 -0.0170581
upperback 8.08266 2.43718 0.773862
thorax -8.73077 0.873095 -0.0495732
lowerneck -5.91083 27.58 5.39981
upperneck 2.43219 51.4894 -0.675179
head 32.7197 -51.5821 150.935
rclavicle 1.74931e-014 3.49861e-014
rhumerus -34.1713 -0.867684 -77.2842
rradius 100.351
rwrist -4.19265
rhand -28.0291 -5.47443
rfingers 7.12502
rthumb -1.41398 -35.4495
lclavicle 1.74931e-014 3.49861e-014
lhumerus -34.0943 -5.01823 84.0243
lradius 78.2985
lwrist 0.394556
lhand -33.6896 -9.94504
lfingers 7.12502
lthumb -6.87997 19.9232
rfemur -63.661 -23.6492 21.8229
rtibia 100.172
rfoot -18.9732 0.30254
rtoes -34.2178
lfemur -48.6117 18.4729 -17.4248
ltibia 70.7938
lfoot -19.9618 -6.77521
ltoes -13.8822
66
root 3.95243 15.2307 -27.5676 -12.9289 -64.2645 19.59
lowerback 35.7116 2.38265 0.104495
upperback 8.40244 2.40548 0.586081
thorax -8.54392 0.844296 -0.30279
lowerneck -6.30584 27.6306 4.90891
upperneck 2.43614 51.542 -0.774517
head 32.671 -51.4638 150.789
rclavicle 1.59028e-015 -3.97569e-014
rhumerus -33.8173 -1.36489 -76.8857
rradius 99.8558
rwrist -3.77232
rhand -27.973 -5.15965
rfingers 7.12502
rthumb -1.35983 -35.1351
lclavicle 1.59028e-015 -3.97569e-014
lhumerus -33.7934 -3.92346 83.923
lradius 79.9181
lwrist 0.56064
lhand -34.0836 -8.80824
lfingers 7.12502
lthumb -7.26022 21.0472
rfemur -65.2298 -24.0703 24.1367
rtibia 100.377
rfoot -18.3527 -0.467484
rtoes -33.224
lfemur -49.6045 19.3323 -18.7127
ltibia 71.6725
lfoot -19.9367 -7.22098
ltoes -12.4225
67
root 4.01941 15.2205 -27.4046 -13.4879 -64.735 20.7013
lowerback 36.2402 2.37465 0.220509
upperback 8.73101 2.36605 0.398912
thorax -8.35635 0.812296 -0.549436
lowerneck -6.71238 27.6613 4.40888
upperneck 2.43733 51.5742 -0.876349
head 32.6312 -51.3667 150.629
rclavicle 9.54166e-015 -1.59028e-014
rhumerus -33.3945 -1.7781 -76.4747
rradius 99.3252
rwrist -3.31459
rhand -27.8959 -4.74595
rfingers 7.12502
rthumb -1.28537 -34.7218
lclavicle 9.54166e-015 -1.59028e-014
lhumerus -33.5493 -2.84863 83.928
lradius 81.5619
lwrist 0.796845
lhand -34.5273 -7.64749
lfingers 7.12502
lthumb -7.6885 22.1927
rfemur -66.5735 -24.3864 26.2179
rtibia 100.516
rfoot -17.58 -1.46743
rtoes -31.6484
lfemur -50.6334 20.1776 -19.9961
ltibia 72.6298
lfoot -19.7345 -7.8236
ltoes -11.0871
68
root 4.08573 15.2074 -27.244 -14.1665 -65.1193 21.9193
lowerback 36.7798 2.35194 0.314208
upperback 9.05936 2.30061 0.212441
thorax -8.17139 0.769323 -0.77355
lowerneck -7.11857 27.6728 3.90877
upperneck 2.43853 51.5836 -0.975816
head 32.5899 -51.2809 150.468
rclavicle 4.77083e-015 1.11319e-014
rhumerus -32.9139 -2.10225 -76.0329
rradius 98.7771
rwrist -2.95344
rhand -27.7892 -4.28848
rfingers 7.12502
rthumb -1.18229 -34.2649
lclavicle 4.77083e-015 1.11319e-014
lhumerus -33.3676 -1.82953 84.0402
lradius 83.22
lwrist 1.08809
lhand -34.9856 -6.52247
lfingers 7.12502
lthumb -8.1309 23.3011
rfemur -67.7149 -24.6369 27.9742
rtibia 100.591
rfoot -16.6915 -2.57412
rtoes -29.5581
lfemur -51.7393 20.9187 -21.275
ltibia 73.6942
lfoot -19.2663 -8.65934
ltoes -9.67307
69
root 4.15117 15.1908 -27.0864 -14.9182 -65.4121 23.2132
lowerback 37.3079 2.3162 0.387046
upperback 9.38256 2.21349 0.0312942
thorax -7.98684 0.717679 -0.97237
lowerneck -7.52272 27.6673 3.42066
upperneck 2.43627 51.5692 -1.07244
head 32.5399 -51.2002 150.318
rclavicle 6.36111e-015 -1.59028e-015
rhumerus -32.3775 -2.34149 -75.5569
rradius 98.2225
rwrist -2.77713
rhand -27.6535 -3.85509
rfingers 7.12502
rthumb -1.0513 -33.8322
lclavicle 6.36111e-015 -1.59028e-015
lhumerus -33.2421 -0.895139 84.2436
lradius 84.8806
lwrist 1.40487
lhand -35.3948 -5.49958
lfingers 7.12502
lthumb -8.52578 24.3083
rfemur -68.6731 -24.8011 29.3709
rtibia 100.587
rfoot -15.7059 -3.68682
rtoes -27.1023
lfemur -52.953 21.5448 -22.5182
ltibia 74.8849
lfoot -18.5184 -9.74947
ltoes -8.6138
70
root 4.21521 15.17 -26.9317 -15.7143 -65.6215 24.558
lowerback 37.8185 2.27328 0.430364
upperback 9.69483 2.11037 -0.136262
thorax -7.80792 0.659843 -1.13485
lowerneck -7.91966 27.6493 2.95171
upperneck 2.4305 51.5337 -1.16473
head 32.48 -51.1229 150.18
rclavicle 2.22639e-014 2.06736e-014
rhumerus -31.7864 -2.48447 -75.0375
rradius 97.6658
rwrist -2.83659
rhand -27.4917 -3.49184
rfingers 7.12502
rthumb -0.89495 -33.4697
lclavicle 2.22639e-014 2.06736e-014
lhumerus -33.174 -0.0479164 84.5214
lradius 86.5313
lwrist 1.68204
lhand -35.6953 -4.6317
lfingers 7.12502
lthumb -8.81582 25.1642
rfemur -69.4483 -24.8567 30.3711
rtibia 100.484
rfoot -14.6388 -4.70872
rtoes -24.4329
lfemur -54.2732 22.0162 -23.665
ltibia 76.2087
lfoot -17.5098 -11.1202
ltoes -8.18589
71
root 4.27652 15.1456 -26.7789 -16.5577 -65.7845 25.9144
lowerback 38.3558 2.23698 0.45727
upperback 9.99371 2.01206 -0.284949
thorax -7.65145 0.604438 -1.27095
lowerneck -8.30345 27.6189 2.51239
upperneck 2.42165 51.4666 -1.24816
head 32.4061 -51.049 150.059
rclavicle 4.6118e-014 -2.38542e-014
rhumerus -31.151 -2.54253 -74.4665
rradius 97.1107
rwrist -3.14015
rhand -27.3179 -3.22791
rfingers 7.12502
rthumb -0.727114 -33.2064
lclavicle 4.6118e-014 -2.38542e-014
lhumerus -33.169 0.673677 84.8748
lradius 88.1783
lwrist 1.9578
lhand -35.9002 -3.87891
lfingers 7.12502
lthumb -9.01349 25.9085
rfemur -69.9661 -24.7859 30.9404
rtibia 100.246
rfoot -13.5085 -5.55863
rtoes -21.7548
lfemur -55.6204 22.3335 -24.6244
ltibia 77.6485
lfoot -16.3124 -12.7627
ltoes -8.73886
72
root 4.33513 15.1143 -26.6284 -17.3487 -65.9226 27.2148
lowerback 38.878 2.2059 0.47707
upperback 10.2719 1.92206 -0.412909
thorax -7.51092 0.553557 -1.3844
lowerneck -8.67264 27.5864 2.11318
upperneck 2.4084 51.3768 -1.32235
head 32.3268 -50.9815 149.944
rclavicle 1.59028e-015 3.33958e-014
rhumerus -30.4657 -2.51267 -73.8557
rradius 96.5542
rwrist -3.64931
rhand -27.1386 -3.06059
rfingers 7.12502
rthumb -0.553983 -33.0396
lclavicle 1.59028e-015 3.33958e-014
lhumerus -33.2267 1.28397 85.2683
lradius 89.8142
lwrist 2.14504
lhand -35.9383 -3.2694
lfingers 7.12502
lthumb -9.05028 26.5164
rfemur -70.2831 -24.5568 31.1267
rtibia 99.8656
rfoot -12.4544 -6.22544
rtoes -19.5111
lfemur -57.0373 22.5305 -25.3508
ltibia 79.1875
lfoot -15.0049 -14.7064
ltoes -10.1192
73
root 4.3908 15.0743 -26.4786 -18.0062 -66.0277 28.3805
lowerback 39.3731 2.15803 0.532411
upperback 10.5248 1.83071 -0.520223
thorax -7.3867 0.503178 -1.49366
lowerneck -9.02209 27.5529 1.75871
upperneck 2.39294 51.2567 -1.3836
head 32.2523 -50.9333 149.822
rclavicle -8.11041e-014 4.77083e-014
rhumerus -29.7356 -2.40598 -73.2081
rradius 95.9917
rwrist -4.27925
rhand -26.9754 -2.98161
rfingers 7.12502
rthumb -0.396318 -32.961
lclavicle -8.11041e-014 4.77083e-014
lhumerus -33.3484 1.78618 85.6813
lradius 91.4352
lwrist 2.21027
lhand -35.8033 -2.80128
lfingers 7.12502
lthumb -8.92004 26.9902
rfemur -70.4165 -24.2173 30.996
rtibia 99.3551
rfoot -11.6254 -6.71235
rtoes -17.7416
lfemur -58.4995 22.5719 -25.8005
ltibia 80.7785
lfoot -13.7082 -16.8618
ltoes -12.1466
74
root 4.44345 15.0273 -26.33 -18.5444 -66.1641 29.4058
lowerback 39.8721 2.11826 0.609313
upperback 10.7498 1.76262 -0.601331
thorax -7.29172 0.463771 -1.59546
lowerneck -9.35355 27.5207 1.44021
upperneck 2.37498 51.1151 -1.43561
head 32.1879 -50.9102 149.689
rclavicle -6.20208e-014 1.74931e-014
rhumerus -28.9564 -2.22306 -72.5253
rradius 95.4176
rwrist -4.94132
rhand -26.8485 -2.95997
rfingers 7.12502
rthumb -0.273718 -32.9395
lclavicle -6.20208e-014 1.74931e-014
lhumerus -33.5352 2.19947 86.0962
lradius 93.0404
lwrist 2.12629
lhand -35.4929 -2.47474
lfingers 7.12502
lthumb -8.62047 27.3293
rfemur -70.3457 -23.7469 30.6068
rtibia 98.7569
rfoot -11.2825 -6.98867
rtoes -16.8308
lfemur -59.9244 22.502 -25.8839
ltibia 82.3564
lfoot -12.3769 -19.1505
ltoes -13.6919
75
root 4.49354 14.9742 -26.1826 -18.9829 -66.3543 30.3039
lowerback 40.3914 2.09399 0.700205
upperback 10.9447 1.7237 -0.653865
thorax -7.23331 0.43752 -1.68588
lowerneck -9.66556 27.4883 1.14306
upperneck 2.35743 50.9605 -1.48125
head 32.1419 -50.9195 149.539
rclavicle -3.49861e-014 -4.77083e-015
rhumerus -28.1255 -1.97031 -71.8041
rradius 94.8254
rwrist -5.52124
rhand -26.7659 -2.96323
rfingers 7.12502
rthumb -0.193978 -32.9429
lclavicle -3.49861e-014 -4.77083e-015
lhumerus -33.784 2.55316 86.4995
lradius 94.6295
lwrist 1.89811
lhand -35.0185 -2.30581
lfingers 7.12502
lthumb -8.16262 27.5165
rfemur -70.0946 -23.1621 30.0166
rtibia 98.1255
rfoot -11.5385 -7.09009
rtoes -16.9785
lfemur -61.2507 22.3641 -25.5978
ltibia 83.8475
lfoot -11.1542 -21.3109
ltoes -14.6685
76
root 4.54222 14.9147 -26.0354 -19.3007 -66.5618 31.1005
lowerback 40.8742 2.06118 0.815396
upperback 11.1093 1.69026 -0.688019
thorax -7.19423 0.414699 -1.7712
lowerneck -9.96032 27.4566 0.856756
upperneck 2.3426 50.8086 -1.52375
head 32.1177 -50.9541 149.371
rclavicle -5.24792e-014 1.74931e-014
rhumerus -27.2442 -1.66044 -71.047
rradius 94.2163
rwrist -5.94248
rhand -26.7362 -2.95712
rfingers 7.12502
rthumb -0.165273 -32.9368
lclavicle -5.24792e-014 1.74931e-014
lhumerus -34.0917 2.87235 86.8749
lradius 96.2034
lwrist 1.54198
lhand -34.4143 -2.33111
lfingers 7.12502
lthumb -7.57951 27.5131
rfemur -69.7766 -22.5316 29.2867
rtibia 97.5334
rfoot -12.4261 -7.00314
rtoes -17.8333
lfemur -62.4906 22.1286 -24.9949
ltibia 85.1849
lfoot -10.1365 -23.1193
ltoes -14.7438
